<svg xmlns="http://www.w3.org/2000/svg" width="24" height="24" viewBox="0 0 24 24">
  <g id="activity" transform="translate(-364 -188)">
    <path id="Vector" d="M13.75,21.5h-6C2.32,21.5,0,19.18,0,13.75v-6C0,2.32,2.32,0,7.75,0h6c5.43,0,7.75,2.32,7.75,7.75v6C21.5,19.18,19.18,21.5,13.75,21.5Zm-6-20C3.14,1.5,1.5,3.14,1.5,7.75v6C1.5,18.36,3.14,20,7.75,20h6C18.36,20,20,18.36,20,13.75v-6c0-4.61-1.64-6.25-6.25-6.25Z" transform="translate(365.25 189.25)" fill="#fbfcff"/>
    <path id="Vector-2" data-name="Vector" d="M.754,6.492a.736.736,0,0,1-.46-.16.749.749,0,0,1-.14-1.05l2.38-3.09A1.752,1.752,0,0,1,5,1.882l1.83,1.44a.214.214,0,0,0,.19.05.222.222,0,0,0,.17-.1L9.5.292a.739.739,0,0,1,1.05-.13.738.738,0,0,1,.13,1.05l-2.31,2.98a1.707,1.707,0,0,1-1.17.66,1.735,1.735,0,0,1-1.3-.36l-1.83-1.44A.219.219,0,0,0,3.884,3a.222.222,0,0,0-.17.1l-2.38,3.09A.678.678,0,0,1,.754,6.492Z" transform="translate(370.576 196.748)" fill="#fbfcff"/>
    <path id="Vector-3" data-name="Vector" d="M0,0H24V24H0Z" transform="translate(364 188)" fill="none" opacity="0"/>
  </g>
</svg>
