<svg xmlns="http://www.w3.org/2000/svg" width="24" height="24" viewBox="0 0 24 24">
  <g id="scan" transform="translate(-364 -252)">
    <path id="Vector" d="M.75,8.5A.755.755,0,0,1,0,7.75V5.25A5.256,5.256,0,0,1,5.25,0h2.5A.755.755,0,0,1,8.5.75a.755.755,0,0,1-.75.75H5.25A3.751,3.751,0,0,0,1.5,5.25v2.5A.755.755,0,0,1,.75,8.5Z" transform="translate(365.25 253.25)" fill="#31343a"/>
    <path id="Vector-2" data-name="Vector" d="M7.75,8.5A.755.755,0,0,1,7,7.75V5.25A3.751,3.751,0,0,0,3.25,1.5H.75A.755.755,0,0,1,0,.75.755.755,0,0,1,.75,0h2.5A5.256,5.256,0,0,1,8.5,5.25v2.5A.755.755,0,0,1,7.75,8.5Z" transform="translate(378.25 253.25)" fill="#31343a"/>
    <path id="Vector-3" data-name="Vector" d="M2.25,7.5H.75A.75.75,0,0,1,.75,6h1.5A3.751,3.751,0,0,0,6,2.25V.75a.75.75,0,0,1,1.5,0v1.5A5.256,5.256,0,0,1,2.25,7.5Z" transform="translate(379.25 267.25)" fill="#31343a"/>
    <path id="Vector-4" data-name="Vector" d="M7.75,8.5H5.25A5.256,5.256,0,0,1,0,3.25V.75A.755.755,0,0,1,.75,0,.755.755,0,0,1,1.5.75v2.5A3.751,3.751,0,0,0,5.25,7h2.5a.75.75,0,0,1,0,1.5Z" transform="translate(365.25 266.25)" fill="#31343a"/>
    <path id="Vector-5" data-name="Vector" d="M7.75,12.5h-4A3.381,3.381,0,0,1,0,8.75v-5A3.381,3.381,0,0,1,3.75,0h4A3.381,3.381,0,0,1,11.5,3.75v5A3.381,3.381,0,0,1,7.75,12.5Zm-4-11c-1.58,0-2.25.67-2.25,2.25v5c0,1.58.67,2.25,2.25,2.25h4C9.33,11,10,10.33,10,8.75v-5C10,2.17,9.33,1.5,7.75,1.5Z" transform="translate(370.25 257.75)" fill="#31343a"/>
    <path id="Vector-6" data-name="Vector" d="M14.75,1.5H.75A.755.755,0,0,1,0,.75.755.755,0,0,1,.75,0h14a.755.755,0,0,1,.75.75A.755.755,0,0,1,14.75,1.5Z" transform="translate(368.25 263.25)" fill="#31343a"/>
    <path id="Vector-7" data-name="Vector" d="M0,0H24V24H0Z" transform="translate(364 252)" fill="none" opacity="0"/>
  </g>
</svg>
