<svg xmlns="http://www.w3.org/2000/svg" width="24" height="24" viewBox="0 0 24 24">
  <g id="vuesax_outline_setting-3" data-name="vuesax/outline/setting-3" transform="translate(-364 -190)">
    <g id="setting-3">
      <path id="Vector" d="M13.75,21.5h-6C2.32,21.5,0,19.18,0,13.75v-6C0,2.32,2.32,0,7.75,0h6c5.43,0,7.75,2.32,7.75,7.75v6C21.5,19.18,19.18,21.5,13.75,21.5Zm-6-20C3.14,1.5,1.5,3.14,1.5,7.75v6C1.5,18.36,3.14,20,7.75,20h6C18.36,20,20,18.36,20,13.75v-6c0-4.61-1.64-6.25-6.25-6.25Z" transform="translate(365.25 191.25)" fill="#31343a"/>
      <path id="Vector-2" data-name="Vector" d="M.75,5.4A.755.755,0,0,1,0,4.65V.75A.755.755,0,0,1,.75,0,.755.755,0,0,1,1.5.75v3.9A.755.755,0,0,1,.75,5.4Z" transform="translate(378.83 203.85)" fill="#31343a"/>
      <path id="Vector-3" data-name="Vector" d="M.75,3.45A.755.755,0,0,1,0,2.7V.75A.755.755,0,0,1,.75,0,.755.755,0,0,1,1.5.75V2.7A.755.755,0,0,1,.75,3.45Z" transform="translate(378.83 194.75)" fill="#31343a"/>
      <path id="Vector-4" data-name="Vector" d="M3.35,6.7A3.35,3.35,0,1,1,6.7,3.35,3.35,3.35,0,0,1,3.35,6.7Zm0-5.2A1.85,1.85,0,1,0,5.2,3.35,1.852,1.852,0,0,0,3.35,1.5Z" transform="translate(376.23 196.7)" fill="#31343a"/>
      <path id="Vector-5" data-name="Vector" d="M.75,3.45A.755.755,0,0,1,0,2.7V.75A.755.755,0,0,1,.75,0,.755.755,0,0,1,1.5.75V2.7A.749.749,0,0,1,.75,3.45Z" transform="translate(371.67 205.8)" fill="#31343a"/>
      <path id="Vector-6" data-name="Vector" d="M.75,5.4A.755.755,0,0,1,0,4.65V.75A.755.755,0,0,1,.75,0,.755.755,0,0,1,1.5.75v3.9A.749.749,0,0,1,.75,5.4Z" transform="translate(371.67 194.75)" fill="#31343a"/>
      <path id="Vector-7" data-name="Vector" d="M3.35,6.7A3.35,3.35,0,1,1,6.7,3.35,3.35,3.35,0,0,1,3.35,6.7Zm0-5.2A1.85,1.85,0,1,0,5.2,3.35,1.852,1.852,0,0,0,3.35,1.5Z" transform="translate(369.07 200.6)" fill="#31343a"/>
      <path id="Vector-8" data-name="Vector" d="M0,0H24V24H0Z" transform="translate(364 190)" fill="none" opacity="0"/>
    </g>
  </g>
</svg>
